<svg xmlns="http://www.w3.org/2000/svg" width="100" viewBox="0 0 60 60"><g stroke="#000" stroke-width="2" fill="none" stroke-linejoin="round"><g stroke-width="2"><g stroke-linecap="round"><path d="M40.92 56.87c-7.003 2.84-14.837 2.84-21.84 0m33.22-8.32c9.808-11.784 8.748-29.166-2.417-39.672s-28.58-10.506-39.745 0S-2.098 36.766 7.7 48.55m42.6 2.15a28.5 28.5 0 0 1-7.55 5.34m-25.5 0A28.5 28.5 0 0 1 9.7 50.7"/><path d="M50.13 44.8c7.612-10.336 6.16-24.758-3.362-33.368s-24.016-8.6-33.537 0S2.258 34.474 9.87 44.8m29.03 8.56a24.97 24.97 0 0 1-17.8 0"/></g><path d="M28.564 40.2l-.004-.007a1.7 1.7 0 0 0-2.482-.431l-.001.001c-.46.36-1.07.458-1.618.26s-.956-.663-1.08-1.232a1.69 1.69 0 0 0-2.182-1.247l-.007.002a1.68 1.68 0 0 1-2.198-1.821l.001-.005a1.67 1.67 0 0 0-1.622-1.905h-.002c-.58-.01-1.115-.32-1.41-.82s-.305-1.12-.03-1.63l.003-.005c.227-.42.263-.916.098-1.363s-.516-.8-.96-.972l-.004-.001c-.542-.207-.937-.683-1.04-1.254s.103-1.154.54-1.536l.001-.001a1.65 1.65 0 0 0 0-2.487l-.002-.002c-.437-.382-.642-.965-.54-1.536s.496-1.047 1.04-1.254l.004-.002c.445-.17.796-.524.96-.97s.13-.944-.097-1.363l-.003-.005c-.275-.51-.264-1.13.03-1.63s.828-.812 1.41-.82h.002a1.67 1.67 0 0 0 1.623-1.905l-.001-.005a1.68 1.68 0 0 1 2.198-1.821l.006.002a1.69 1.69 0 0 0 2.182-1.246c.124-.57.533-1.034 1.08-1.232s1.16-.1 1.618.26a1.7 1.7 0 0 0 2.483-.431l.004-.006a1.7 1.7 0 0 1 2.871 0l.004.007a1.7 1.7 0 0 0 2.482.431l.001-.001c.46-.36 1.07-.458 1.618-.26s.956.663 1.08 1.232a1.69 1.69 0 0 0 2.182 1.247l.007-.002a1.68 1.68 0 0 1 2.198 1.821l-.001.005a1.67 1.67 0 0 0 1.622 1.905h.002c.58.01 1.115.32 1.41.82s.305 1.12.03 1.63l-.003.005c-.227.42-.263.916-.098 1.363s.516.8.96.972l.004.001c.542.207.937.683 1.04 1.254s-.103 1.154-.54 1.536l-.001.001a1.65 1.65 0 0 0 0 2.487l.002.002c.437.382.642.965.54 1.536s-.496 1.047-1.04 1.254l-.004.002c-.445.17-.796.524-.96.97s-.13.944.097 1.363l.003.005c.275.51.264 1.13-.03 1.63s-.828.812-1.41.82h-.002a1.67 1.67 0 0 0-1.623 1.905l.001.005a1.68 1.68 0 0 1-2.198 1.821l-.006-.002a1.69 1.69 0 0 0-2.182 1.246c-.124.57-.533 1.034-1.08 1.232s-1.16.1-1.618-.26a1.7 1.7 0 0 0-2.483.431l-.004.006a1.7 1.7 0 0 1-2.871 0z"/></g><circle cx="30" cy="25" r="12"/><g stroke-width="2"><path d="M30.896 18.44l1.343 2.71a1 1 0 0 0 .753.545l2.995.433a1 1 0 0 1 .553 1.707l-2.162 2.097a1 1 0 0 0-.289.888l.51 2.966a1 1 0 0 1-1.449 1.056l-2.688-1.407a1 1 0 0 0-.927 0l-2.688 1.407a1 1 0 0 1-1.449-1.056l.51-2.966a1 1 0 0 0-.289-.888l-2.162-2.097a1 1 0 0 1 .553-1.707l2.995-.433a1 1 0 0 0 .753-.545l1.343-2.71a1 1 0 0 1 1.792 0z"/><path d="M39.32 32.57h-.01m4.3.93l10.67 18.46-3.95-1.26-5.97-1.92-.43 2-1.15 5.27-.63 2.92-1.2-2.1-9.55-16.54m-3.3-3.48v-.01M16.4 33.5L5.74 51.96 9.7 50.7l5.96-1.92.43 2 1.15 5.27.63 2.92 1.2-2.1 9.55-16.54m-7.92-7.76h-.01" stroke-linecap="round"/></g></g></svg>